<svg width="408" height="408" viewBox="0 0 408 408" fill="none" xmlns="http://www.w3.org/2000/svg">
    <ellipse opacity="0.6" cx="204.217" cy="200.622" rx="108.042" ry="108.463" transform="rotate(-90 204.217 200.622)" fill="#FF114A"/>
    <g filter="url(#filter0_d)">
        <path fill-rule="evenodd" clip-rule="evenodd" d="M204 330.839C276.26 330.839 334.839 272.26 334.839 200C334.839 127.74 276.26 69.1613 204 69.1613C131.74 69.1613 73.1613 127.74 73.1613 200C73.1613 272.26 131.74 330.839 204 330.839ZM204 369C297.336 369 373 293.336 373 200C373 106.664 297.336 31 204 31C110.664 31 35 106.664 35 200C35 293.336 110.664 369 204 369Z" fill="url(#paint0_linear)"/>
    </g>
    <circle cx="204" cy="200" r="168.5" stroke="url(#paint1_linear)"/>
    <circle cx="204.345" cy="199.908" r="128.339" stroke="url(#paint2_linear)" stroke-width="5"/>
    <path d="M228.189 56.1179L226.596 55.8358L227.684 49.695L225.678 49.948L225.907 48.6526L229.442 48.0506L229.613 48.0809L228.189 56.1179Z" fill="#4B5D86"/>
    <path d="M234.108 57.1659L232.514 56.8838L233.602 50.743L231.596 50.9961L231.825 49.7007L235.36 49.0986L235.531 49.1289L234.108 57.1659Z" fill="#4B5D86"/>
    <path d="M281.266 69.2724C281.068 69.615 280.807 69.8694 280.482 70.0355C280.158 70.2016 279.8 70.2771 279.408 70.2619C279.655 70.6246 279.795 71.0092 279.828 71.4158C279.862 71.8191 279.766 72.2163 279.541 72.6074C279.178 73.2344 278.679 73.6074 278.041 73.7263C277.406 73.842 276.721 73.688 275.987 73.2644C275.254 72.8408 274.777 72.3223 274.558 71.7089C274.339 71.0955 274.41 70.4769 274.77 69.8531C274.996 69.4621 275.293 69.1789 275.661 69.0037C276.029 68.8285 276.43 68.7581 276.863 68.7924C276.653 68.4605 276.54 68.1126 276.521 67.7487C276.506 67.3866 276.598 67.0343 276.796 66.6917C277.143 66.0905 277.619 65.7278 278.225 65.6037C278.833 65.4763 279.481 65.6114 280.17 66.0089C280.855 66.4045 281.295 66.8957 281.491 67.4826C281.692 68.0682 281.616 68.6648 281.266 69.2724ZM278.193 71.6939C278.371 71.3868 278.424 71.0899 278.352 70.803C278.281 70.5162 278.095 70.2859 277.794 70.1124C277.497 69.9407 277.206 69.8957 276.922 69.9773C276.64 70.0557 276.409 70.25 276.23 70.5603C276.056 70.8608 276.004 71.1536 276.072 71.4386C276.14 71.7236 276.329 71.9557 276.639 72.1348C276.943 72.3102 277.232 72.3585 277.506 72.2796C277.783 72.2026 278.012 72.0074 278.193 71.6939ZM279.825 68.5313C279.984 68.2566 280.038 67.9949 279.988 67.746C279.939 67.494 279.783 67.2915 279.518 67.1385C279.256 66.9873 279.006 66.9506 278.767 67.0282C278.528 67.1058 278.327 67.2868 278.162 67.5713C278 67.8525 277.942 68.1207 277.989 68.376C278.035 68.6312 278.191 68.8354 278.456 68.9884C278.721 69.1414 278.974 69.1733 279.215 69.0841C279.46 68.9968 279.663 68.8125 279.825 68.5313Z" fill="#4B5D86"/>
    <path d="M312.379 103.144L311.324 101.917L316.053 97.8509L314.339 96.777L315.337 95.9193L318.455 97.6906L318.568 97.8222L312.379 103.144Z" fill="#4B5D86"/>
    <path d="M319.867 106.684C319.013 107.418 318.207 107.804 317.45 107.839C316.693 107.875 316.021 107.552 315.435 106.87C314.856 106.196 314.635 105.49 314.773 104.751C314.911 104.013 315.39 103.283 316.212 102.561L317.35 101.583C318.213 100.841 319.021 100.456 319.775 100.428C320.531 100.403 321.199 100.728 321.778 101.401C322.357 102.075 322.578 102.781 322.44 103.519C322.305 104.255 321.827 104.984 321.005 105.705L319.867 106.684ZM320.06 104.384C320.573 103.943 320.884 103.553 320.994 103.212C321.11 102.871 321.04 102.552 320.785 102.255C320.536 101.966 320.241 101.849 319.898 101.902C319.561 101.956 319.152 102.182 318.672 102.58L317.169 103.872C316.666 104.305 316.349 104.696 316.22 105.043C316.095 105.391 316.164 105.716 316.424 106.019C316.682 106.319 316.985 106.435 317.335 106.366C317.684 106.297 318.103 106.057 318.592 105.647L320.06 104.384Z" fill="#4B5D86"/>
    <path d="M339.324 146.741L337.11 141.612L338.128 141.173L341.753 142.48C342.259 142.656 342.682 142.764 343.021 142.805C343.361 142.849 343.653 142.819 343.896 142.714C344.228 142.57 344.453 142.374 344.569 142.125C344.688 141.874 344.68 141.593 344.546 141.281C344.401 140.945 344.17 140.73 343.853 140.635C343.54 140.542 343.196 140.577 342.819 140.74L342.175 139.249C342.631 139.052 343.094 138.981 343.564 139.034C344.036 139.091 344.463 139.272 344.847 139.578C345.235 139.882 345.537 140.286 345.755 140.79C346.087 141.561 346.16 142.238 345.974 142.823C345.788 143.411 345.358 143.851 344.683 144.142C344.313 144.302 343.895 144.368 343.428 144.342C342.962 144.316 342.372 144.18 341.661 143.934L339.133 143.007L340.521 146.225L339.324 146.741Z" fill="#4B5D86"/>
    <path d="M344.205 150.309L344.571 151.157L343.373 151.674L343.007 150.826L341.388 151.525L340.747 150.039L342.366 149.341L341.042 146.272L341.948 145.801L348.224 146.794L348.872 148.295L344.205 150.309ZM342.849 147.169L343.564 148.824L346.206 147.684L345.994 147.659L342.849 147.169Z" fill="#4B5D86"/>
    <path d="M354.26 191.409L354.26 192.271C354.26 192.682 354.363 192.986 354.568 193.184C354.773 193.382 355.046 193.481 355.385 193.481C355.714 193.481 355.969 193.382 356.152 193.184C356.335 192.99 356.427 192.721 356.427 192.378C356.427 192.068 356.341 191.809 356.169 191.6C356.001 191.391 355.781 191.286 355.509 191.286L355.509 189.668C355.934 189.668 356.315 189.782 356.651 190.01C356.99 190.241 357.255 190.562 357.446 190.973C357.636 191.387 357.731 191.842 357.731 192.339C357.731 193.201 357.524 193.876 357.11 194.365C356.699 194.854 356.132 195.098 355.408 195.098C355.035 195.098 354.691 194.985 354.378 194.757C354.064 194.529 353.824 194.231 353.656 193.861C353.491 194.32 353.245 194.662 352.917 194.886C352.588 195.113 352.2 195.227 351.752 195.227C351.028 195.227 350.448 194.962 350.011 194.432C349.575 193.906 349.356 193.208 349.356 192.339C349.356 191.525 349.571 190.859 350 190.34C350.429 189.825 350.996 189.567 351.702 189.567L351.702 191.185C351.396 191.185 351.146 191.299 350.952 191.527C350.758 191.758 350.661 192.042 350.661 192.378C350.661 192.762 350.761 193.063 350.963 193.279C351.168 193.499 351.439 193.609 351.775 193.609C352.588 193.609 352.995 193.161 352.995 192.266L352.995 191.409L354.26 191.409Z" fill="#4B5D86"/>
    <path d="M354.26 197.419L354.26 198.281C354.26 198.692 354.363 198.996 354.568 199.194C354.773 199.392 355.046 199.491 355.385 199.491C355.714 199.491 355.969 199.392 356.152 199.194C356.335 199 356.427 198.731 356.427 198.388C356.427 198.078 356.341 197.819 356.169 197.61C356.001 197.401 355.781 197.296 355.509 197.296L355.509 195.678C355.934 195.678 356.315 195.792 356.651 196.02C356.99 196.251 357.255 196.572 357.446 196.983C357.636 197.397 357.731 197.852 357.731 198.349C357.731 199.211 357.524 199.886 357.11 200.375C356.699 200.864 356.132 201.109 355.408 201.109C355.035 201.109 354.691 200.995 354.378 200.767C354.064 200.539 353.824 200.241 353.656 199.871C353.491 200.33 353.245 200.672 352.917 200.896C352.588 201.123 352.2 201.237 351.752 201.237C351.028 201.237 350.448 200.972 350.011 200.442C349.575 199.916 349.356 199.218 349.356 198.349C349.356 197.535 349.571 196.869 350 196.35C350.429 195.835 350.996 195.578 351.702 195.578L351.702 197.195C351.396 197.195 351.146 197.309 350.952 197.537C350.758 197.768 350.661 198.052 350.661 198.388C350.661 198.772 350.761 199.073 350.963 199.289C351.168 199.509 351.439 199.619 351.775 199.619C352.588 199.619 352.995 199.172 352.995 198.276L352.995 197.419L354.26 197.419Z" fill="#4B5D86"/>
    <path d="M342.386 243.824L344.102 238.507L345.156 238.847L347.021 242.22C347.286 242.686 347.533 243.046 347.761 243.3C347.987 243.557 348.227 243.727 348.479 243.808C348.824 243.919 349.122 243.919 349.373 243.808C349.628 243.699 349.808 243.482 349.912 243.159C350.025 242.811 349.993 242.496 349.816 242.216C349.643 241.94 349.36 241.739 348.97 241.613L349.468 240.068C349.941 240.221 350.336 240.472 350.655 240.822C350.972 241.175 351.174 241.594 351.261 242.077C351.352 242.561 351.313 243.064 351.145 243.586C350.887 244.385 350.495 244.943 349.969 245.26C349.443 245.58 348.829 245.627 348.13 245.401C347.746 245.277 347.387 245.052 347.054 244.725C346.72 244.397 346.367 243.907 345.993 243.253L344.703 240.889L343.627 244.224L342.386 243.824Z" fill="#4B5D86"/>
    <path d="M343.778 250.483C342.705 250.136 341.956 249.65 341.531 249.022C341.106 248.395 341.032 247.653 341.308 246.797C341.581 245.952 342.069 245.396 342.771 245.128C343.473 244.861 344.346 244.889 345.39 245.215L346.818 245.675C347.901 246.025 348.651 246.514 349.068 247.143C349.483 247.775 349.555 248.514 349.282 249.359C349.009 250.204 348.521 250.761 347.819 251.028C347.121 251.297 346.25 251.269 345.206 250.943L343.778 250.483ZM345.841 249.448C346.484 249.656 346.98 249.718 347.328 249.634C347.679 249.555 347.915 249.33 348.035 248.957C348.152 248.594 348.098 248.281 347.874 248.016C347.652 247.756 347.246 247.525 346.656 247.323L344.77 246.715C344.138 246.511 343.64 246.444 343.276 246.515C342.914 246.59 342.672 246.818 342.55 247.198C342.428 247.574 342.488 247.894 342.729 248.156C342.97 248.418 343.393 248.65 343.998 248.854L345.841 249.448Z" fill="#4B5D86"/>
    <path d="M326.441 287.7L325.917 288.385C325.668 288.711 325.564 289.015 325.607 289.297C325.65 289.579 325.807 289.823 326.076 290.029C326.337 290.228 326.6 290.305 326.866 290.259C327.129 290.216 327.365 290.058 327.573 289.785C327.762 289.539 327.851 289.281 327.842 289.011C327.835 288.743 327.724 288.526 327.507 288.36L328.49 287.075C328.828 287.334 329.061 287.655 329.19 288.04C329.319 288.43 329.334 288.846 329.236 289.288C329.136 289.733 328.935 290.152 328.633 290.546C328.11 291.231 327.535 291.642 326.909 291.779C326.286 291.918 325.687 291.768 325.112 291.328C324.815 291.101 324.611 290.802 324.501 290.431C324.39 290.06 324.38 289.676 324.471 289.281C324.062 289.546 323.659 289.667 323.262 289.646C322.863 289.627 322.485 289.482 322.129 289.21C321.554 288.77 321.254 288.207 321.229 287.521C321.202 286.837 321.452 286.15 321.98 285.46C322.475 284.813 323.05 284.414 323.706 284.263C324.36 284.115 324.967 284.255 325.527 284.683L324.544 285.968C324.301 285.782 324.033 285.721 323.741 285.784C323.446 285.85 323.197 286.016 322.993 286.283C322.759 286.588 322.657 286.888 322.686 287.183C322.715 287.482 322.863 287.734 323.13 287.938C323.776 288.432 324.371 288.324 324.915 287.612L325.436 286.932L326.441 287.7Z" fill="#4B5D86"/>
    <path d="M317.596 291.378L318.579 290.093L323.533 293.881L324.23 291.983L325.275 292.782L324.185 296.198L324.08 296.336L317.596 291.378Z" fill="#4B5D86"/>
    <path d="M284.668 321.158L289.388 318.169L289.982 319.105L289.257 322.89C289.163 323.418 289.123 323.852 289.135 324.193C289.145 324.536 289.22 324.82 289.362 325.043C289.556 325.349 289.785 325.54 290.049 325.616C290.316 325.694 290.592 325.643 290.879 325.461C291.188 325.265 291.365 325.004 291.408 324.675C291.451 324.352 291.363 324.017 291.143 323.67L292.515 322.802C292.78 323.221 292.924 323.667 292.945 324.14C292.962 324.614 292.85 325.065 292.608 325.492C292.368 325.923 292.017 326.285 291.553 326.578C290.844 327.027 290.186 327.206 289.579 327.113C288.969 327.022 288.468 326.666 288.075 326.045C287.859 325.704 287.728 325.301 287.68 324.836C287.633 324.371 287.675 323.768 287.807 323.027L288.327 320.385L285.366 322.26L284.668 321.158Z" fill="#4B5D86"/>
    <path d="M279.591 324.373L284.311 321.384L284.904 322.321L284.18 326.106C284.086 326.633 284.045 327.068 284.058 327.409C284.067 327.752 284.143 328.035 284.285 328.259C284.478 328.565 284.707 328.756 284.972 328.831C285.238 328.91 285.515 328.858 285.801 328.677C286.11 328.481 286.287 328.219 286.331 327.891C286.374 327.568 286.285 327.233 286.066 326.886L287.437 326.017C287.703 326.437 287.846 326.883 287.867 327.355C287.885 327.83 287.773 328.281 287.531 328.708C287.291 329.138 286.939 329.5 286.476 329.794C285.766 330.243 285.108 330.421 284.502 330.328C283.892 330.237 283.39 329.881 282.997 329.26C282.781 328.92 282.65 328.517 282.603 328.052C282.556 327.587 282.598 326.984 282.729 326.242L283.249 323.6L280.289 325.475L279.591 324.373Z" fill="#4B5D86"/>
    <path d="M240.273 341.572L245.67 340.126L245.957 341.197L244.137 344.594C243.89 345.07 243.721 345.472 243.632 345.802C243.539 346.132 243.526 346.425 243.595 346.681C243.689 347.03 243.85 347.281 244.08 347.432C244.311 347.586 244.59 347.62 244.918 347.532C245.272 347.437 245.518 347.24 245.658 346.939C245.795 346.644 245.811 346.298 245.704 345.901L247.273 345.481C247.401 345.96 247.405 346.429 247.284 346.886C247.159 347.345 246.918 347.742 246.56 348.077C246.202 348.416 245.759 348.657 245.229 348.799C244.418 349.016 243.737 348.99 243.185 348.72C242.63 348.452 242.258 347.963 242.067 347.252C241.963 346.863 241.958 346.439 242.052 345.982C242.145 345.524 242.365 344.961 242.712 344.292L243.996 341.925L240.611 342.832L240.273 341.572Z" fill="#4B5D86"/>
    <path d="M237.052 345.808C237.352 345.299 237.775 344.972 238.319 344.826C239.015 344.639 239.635 344.728 240.181 345.092C240.728 345.459 241.11 346.048 241.327 346.86C241.465 347.375 241.48 347.877 241.371 348.366C241.26 348.86 241.035 349.279 240.695 349.625C240.356 349.975 239.934 350.218 239.429 350.353C238.91 350.492 238.414 350.486 237.94 350.334C237.467 350.183 237.054 349.894 236.7 349.467C236.346 349.041 236.083 348.514 235.911 347.888L235.756 347.309C235.405 345.997 235.455 344.878 235.906 343.954C236.358 343.029 237.175 342.381 238.358 342.01L238.741 341.902L239.09 343.205L238.746 343.303C237.403 343.729 236.838 344.564 237.052 345.808ZM238.255 346.124C238.003 346.191 237.804 346.314 237.658 346.492C237.509 346.671 237.413 346.865 237.368 347.074L237.541 347.718C237.683 348.248 237.894 348.632 238.174 348.869C238.454 349.107 238.763 349.181 239.102 349.09C239.416 349.006 239.635 348.793 239.76 348.45C239.885 348.111 239.89 347.726 239.774 347.293C239.659 346.864 239.467 346.537 239.198 346.312C238.926 346.091 238.612 346.028 238.255 346.124Z" fill="#4B5D86"/>
    <path d="M191.175 345.142L196.756 345.388L196.708 346.496L193.95 349.187C193.571 349.566 193.289 349.9 193.104 350.186C192.916 350.473 192.816 350.749 192.804 351.014C192.788 351.375 192.867 351.663 193.041 351.876C193.214 352.093 193.471 352.209 193.81 352.224C194.175 352.24 194.47 352.126 194.694 351.882C194.914 351.641 195.032 351.316 195.051 350.906L196.672 350.977C196.651 351.473 196.513 351.921 196.26 352.321C196.003 352.72 195.654 353.026 195.211 353.238C194.768 353.454 194.273 353.55 193.725 353.526C192.886 353.489 192.244 353.259 191.799 352.835C191.351 352.412 191.143 351.833 191.176 351.099C191.193 350.696 191.316 350.291 191.543 349.882C191.77 349.474 192.15 349.003 192.681 348.47L194.618 346.6L191.117 346.445L191.175 345.142Z" fill="#4B5D86"/>
    <path d="M185.181 350.868C185.198 350.473 185.313 350.127 185.524 349.83C185.735 349.533 186.018 349.301 186.373 349.133C185.986 348.926 185.684 348.649 185.468 348.303C185.251 347.961 185.153 347.565 185.173 347.113C185.205 346.39 185.476 345.829 185.987 345.429C186.497 345.033 187.176 344.854 188.022 344.891C188.869 344.928 189.53 345.169 190.008 345.612C190.485 346.055 190.708 346.636 190.676 347.356C190.656 347.807 190.523 348.195 190.277 348.521C190.031 348.846 189.708 349.093 189.309 349.263C189.647 349.461 189.909 349.717 190.093 350.031C190.273 350.346 190.355 350.7 190.337 351.096C190.307 351.789 190.051 352.331 189.571 352.72C189.09 353.114 188.453 353.293 187.659 353.258C186.868 353.223 186.251 352.99 185.807 352.56C185.359 352.133 185.15 351.569 185.181 350.868ZM186.79 347.302C186.774 347.657 186.864 347.944 187.06 348.166C187.255 348.388 187.527 348.506 187.873 348.521C188.216 348.536 188.495 348.442 188.71 348.239C188.924 348.039 189.039 347.76 189.055 347.402C189.07 347.055 188.982 346.771 188.79 346.55C188.598 346.329 188.323 346.21 187.965 346.194C187.614 346.179 187.336 346.269 187.129 346.466C186.919 346.662 186.806 346.941 186.79 347.302ZM186.801 350.861C186.787 351.178 186.859 351.435 187.019 351.633C187.178 351.834 187.411 351.941 187.716 351.955C188.018 351.968 188.257 351.885 188.433 351.706C188.609 351.527 188.705 351.274 188.719 350.946C188.733 350.621 188.661 350.357 188.502 350.152C188.343 349.947 188.11 349.837 187.805 349.824C187.499 349.81 187.26 349.899 187.087 350.089C186.91 350.279 186.815 350.537 186.801 350.861Z" fill="#4B5D86"/>
    <path d="M145.579 338.444L144.791 338.094C144.416 337.928 144.096 337.898 143.832 338.006C143.568 338.113 143.367 338.322 143.23 338.632C143.096 338.932 143.083 339.206 143.19 339.454C143.293 339.7 143.501 339.892 143.815 340.031C144.098 340.157 144.37 340.184 144.631 340.112C144.89 340.043 145.075 339.884 145.185 339.635L146.664 340.291C146.492 340.68 146.233 340.982 145.889 341.197C145.539 341.413 145.139 341.525 144.686 341.533C144.23 341.539 143.776 341.441 143.322 341.239C142.534 340.89 142 340.426 141.722 339.849C141.441 339.276 141.448 338.658 141.742 337.996C141.893 337.655 142.137 337.388 142.472 337.193C142.807 336.999 143.178 336.9 143.583 336.897C143.23 336.56 143.018 336.197 142.947 335.806C142.872 335.413 142.925 335.012 143.107 334.603C143.401 333.941 143.878 333.518 144.54 333.334C145.198 333.148 145.925 333.232 146.719 333.585C147.463 333.915 147.985 334.381 148.285 334.984C148.581 335.585 148.587 336.208 148.301 336.853L146.822 336.197C146.946 335.917 146.943 335.642 146.814 335.372C146.681 335.101 146.461 334.897 146.154 334.761C145.803 334.605 145.488 334.575 145.208 334.672C144.923 334.77 144.713 334.973 144.577 335.28C144.247 336.023 144.491 336.577 145.31 336.94L146.093 337.288L145.579 338.444Z" fill="#4B5D86"/>
    <path d="M141.688 335.86L139.578 339.455L135.403 337.602L135.95 336.369L138.912 337.684L139.807 336.164C139.373 336.196 138.958 336.124 138.562 335.948C137.852 335.633 137.394 335.166 137.187 334.548C136.98 333.929 137.052 333.224 137.403 332.433C137.616 331.952 137.91 331.565 138.285 331.274C138.654 330.985 139.075 330.819 139.547 330.775C140.018 330.735 140.511 330.829 141.026 331.058C141.477 331.258 141.854 331.534 142.16 331.886C142.463 332.241 142.654 332.634 142.733 333.065C142.808 333.494 142.758 333.923 142.584 334.352L141.12 333.703C141.228 333.379 141.228 333.089 141.121 332.833C141.009 332.579 140.803 332.386 140.502 332.252C140.168 332.104 139.858 332.109 139.571 332.268C139.283 332.43 139.041 332.731 138.845 333.171C138.658 333.594 138.618 333.964 138.726 334.281C138.834 334.599 139.079 334.842 139.461 335.012C139.813 335.168 140.138 335.202 140.438 335.115L140.641 335.046L141.688 335.86Z" fill="#4B5D86"/>
    <path d="M103.175 305.259L107.125 309.209L106.341 309.993L102.49 310.116C101.954 310.139 101.521 310.195 101.191 310.282C100.859 310.366 100.599 310.502 100.411 310.69C100.156 310.946 100.02 311.211 100.004 311.485C99.9853 311.762 100.096 312.021 100.336 312.261C100.595 312.52 100.889 312.635 101.219 312.606C101.544 312.576 101.851 312.417 102.141 312.127L103.289 313.275C102.938 313.625 102.535 313.863 102.078 313.987C101.619 314.108 101.154 314.098 100.685 313.955C100.212 313.815 99.7821 313.552 99.3942 313.164C98.8004 312.57 98.4824 311.967 98.4402 311.355C98.3953 310.74 98.6328 310.172 99.1527 309.653C99.4377 309.367 99.8019 309.151 100.245 309.003C100.689 308.856 101.286 308.764 102.038 308.73L104.73 308.659L102.252 306.181L103.175 305.259Z" fill="#4B5D86"/>
    <path d="M93.9489 307.679L94.891 306.737L95.0019 306.848C95.527 307.357 96.0786 307.639 96.6565 307.695C97.2318 307.747 97.7833 307.573 98.3111 307.172C97.6936 307.177 97.1513 306.946 96.6842 306.479C96.1828 305.978 95.9638 305.4 96.0271 304.746C96.0904 304.091 96.415 303.471 97.0009 302.885C97.3756 302.51 97.7965 302.253 98.2636 302.113C98.7281 301.971 99.1939 301.964 99.661 302.093C100.125 302.22 100.545 302.471 100.92 302.846C101.527 303.452 101.806 304.154 101.759 304.951C101.709 305.746 101.331 306.495 100.627 307.2L100.215 307.612C99.5897 308.237 98.9207 308.671 98.2082 308.914C97.4904 309.157 96.7805 309.188 96.0786 309.009C95.3713 308.829 94.7248 308.449 94.1389 307.869L93.9489 307.679ZM97.9509 305.909C98.1356 306.094 98.352 306.213 98.6001 306.266C98.8455 306.321 99.083 306.305 99.3126 306.218L99.661 305.87C100.044 305.487 100.268 305.112 100.334 304.746C100.397 304.381 100.293 304.063 100.021 303.792C99.7758 303.546 99.4815 303.445 99.1385 303.487C98.7901 303.529 98.4616 303.705 98.1528 304.013C97.8388 304.327 97.6619 304.657 97.6224 305.003C97.5828 305.349 97.6923 305.651 97.9509 305.909Z" fill="#4B5D86"/>
    <path d="M65.5115 245.333L65.9518 246.89L59.9508 248.587L61.0528 250.283L59.7869 250.641L57.7047 247.722L57.6575 247.555L65.5115 245.333Z" fill="#4B5D86"/>
    <path d="M61.0229 244.191L56.9086 244.866L55.6655 240.47L56.9637 240.103L57.8458 243.222L59.5867 242.939C59.2846 242.625 59.0746 242.26 58.9568 241.843C58.7456 241.096 58.8117 240.445 59.1551 239.89C59.4985 239.336 60.0868 238.94 60.92 238.705C61.4263 238.562 61.9111 238.541 62.3742 238.643C62.8328 238.742 63.2298 238.959 63.5652 239.295C63.897 239.631 64.1395 240.071 64.2929 240.613C64.427 241.087 64.4562 241.554 64.3806 242.014C64.3015 242.474 64.1212 242.872 63.8399 243.208C63.5576 243.54 63.1958 243.776 62.7546 243.916L62.3188 242.376C62.6365 242.251 62.8595 242.066 62.9878 241.82C63.1115 241.572 63.1287 241.29 63.0393 240.974C62.9398 240.622 62.7374 240.386 62.4322 240.267C62.1234 240.149 61.7373 240.155 61.2741 240.286C60.8287 240.412 60.5186 240.618 60.3435 240.904C60.1684 241.19 60.1378 241.534 60.2515 241.936C60.3561 242.306 60.5379 242.579 60.7968 242.754L60.9795 242.865L61.0229 244.191Z" fill="#4B5D86"/>
    <path d="M55.6752 192.008L55.7364 191.086L57.0379 191.173L56.9767 192.095L58.7362 192.211L58.6289 193.826L56.8694 193.709L56.6479 197.044L55.6264 197.049L50.4949 193.302L50.6032 191.671L55.6752 192.008ZM55.4484 195.421L55.5679 193.622L52.6968 193.432L52.8741 193.55L55.4484 195.421Z" fill="#4B5D86"/>
    <path d="M69.7722 143.708L67.6932 148.894L66.6644 148.481L65.0371 144.988C64.8046 144.505 64.5835 144.129 64.3737 143.86C64.1654 143.587 63.9382 143.402 63.6922 143.303C63.3562 143.168 63.0589 143.148 62.8004 143.241C62.5383 143.333 62.3441 143.537 62.2177 143.852C62.0816 144.191 62.0918 144.507 62.2482 144.799C62.4025 145.086 62.6702 145.306 63.0512 145.459L62.4471 146.965C61.9864 146.781 61.6093 146.503 61.3157 146.132C61.0235 145.757 60.8506 145.326 60.7969 144.838C60.7398 144.349 60.8133 143.85 61.0175 143.34C61.3299 142.561 61.7593 142.032 62.3057 141.752C62.8534 141.469 63.4684 141.464 64.1509 141.738C64.525 141.888 64.8671 142.138 65.1773 142.487C65.4875 142.837 65.8063 143.35 66.1336 144.028L67.2575 146.475L68.5615 143.223L69.7722 143.708Z" fill="#4B5D86"/>
    <path d="M93.0997 105.956L92.0465 107.184L87.3126 103.124L86.51 104.98L85.5114 104.124L86.7911 100.774L86.904 100.642L93.0997 105.956Z" fill="#4B5D86"/>
    <path d="M92.5631 95.454L96.0101 102.562L94.8985 103.858L91.7612 97.0082L89.1227 100.085L88.1283 99.232L91.8747 94.8636L92.5631 95.454Z" fill="#4B5D86"/>
    <path d="M129.588 65.0795L130.15 66.2874L130.008 66.3535C129.349 66.6724 128.895 67.0939 128.645 67.6179C128.398 68.1403 128.373 68.7181 128.569 69.3514C128.776 68.7694 129.178 68.339 129.777 68.0602C130.42 67.7609 131.038 67.7531 131.631 68.0368C132.225 68.3206 132.696 68.838 133.046 69.5891C133.269 70.0695 133.367 70.5531 133.338 71.0398C133.313 71.525 133.16 71.9649 132.878 72.3594C132.6 72.7524 132.221 73.0607 131.74 73.2844C130.962 73.6467 130.207 73.669 129.474 73.3513C128.745 73.0321 128.17 72.4208 127.75 71.5175L127.504 70.9897C127.131 70.1878 126.952 69.4106 126.968 68.658C126.986 67.9005 127.199 67.2227 127.608 66.6247C128.019 66.0217 128.598 65.5445 129.344 65.1929L129.588 65.0795ZM129.879 69.4456C129.642 69.5558 129.456 69.7184 129.322 69.9334C129.186 70.145 129.119 70.3736 129.122 70.6191L129.33 71.0657C129.559 71.5563 129.834 71.8954 130.156 72.083C130.476 72.2673 130.811 72.2783 131.159 72.1161C131.474 71.9696 131.67 71.7279 131.748 71.3912C131.828 71.0494 131.775 70.6806 131.591 70.2848C131.404 69.8822 131.154 69.603 130.843 69.4474C130.532 69.2918 130.21 69.2912 129.879 69.4456Z" fill="#4B5D86"/>
    <path d="M176.336 56.5532L174.734 56.782L173.852 50.6084L172.025 51.4745L171.839 50.1722L175.01 48.4977L175.182 48.4732L176.336 56.5532Z" fill="#4B5D86"/>
    <path d="M179.347 51.2824L180.2 51.1605C180.607 51.1024 180.893 50.9578 181.06 50.7266C181.227 50.4954 181.286 50.2117 181.238 49.8755C181.192 49.5504 181.058 49.3113 180.836 49.1583C180.618 49.0047 180.339 48.9522 179.999 49.0007C179.693 49.0445 179.448 49.1662 179.265 49.3657C179.082 49.5615 179.01 49.7943 179.048 50.064L177.447 50.2928C177.387 49.8716 177.445 49.4787 177.623 49.114C177.804 48.745 178.085 48.4373 178.464 48.1908C178.847 47.9438 179.285 47.7852 179.776 47.715C180.629 47.5931 181.327 47.7026 181.87 48.0435C182.412 48.3808 182.734 48.9078 182.837 49.6246C182.889 49.994 182.825 50.35 182.644 50.6926C182.463 51.0351 182.202 51.3156 181.86 51.5341C182.337 51.6318 182.71 51.8273 182.978 52.1208C183.25 52.4137 183.418 52.7818 183.481 53.2252C183.583 53.9419 183.403 54.5539 182.94 55.0611C182.481 55.5678 181.821 55.8826 180.96 56.0056C180.155 56.1207 179.465 56.0025 178.891 55.651C178.32 55.2989 177.985 54.7738 177.885 54.0755L179.487 53.8467C179.53 54.1496 179.678 54.3811 179.931 54.541C180.188 54.7004 180.482 54.7563 180.815 54.7088C181.195 54.6545 181.478 54.5122 181.664 54.2821C181.853 54.0478 181.924 53.7643 181.876 53.4318C181.761 52.6264 181.26 52.287 180.374 52.4137L179.526 52.5349L179.347 51.2824Z" fill="#4B5D86"/>
    <path d="M252.503 56.7301L253.303 57.0503C253.684 57.2028 254.005 57.2205 254.265 57.1033C254.524 56.9862 254.718 56.77 254.844 56.4547C254.966 56.1498 254.969 55.8757 254.853 55.6324C254.741 55.3905 254.525 55.2058 254.206 55.0783C253.919 54.9633 253.646 54.9466 253.388 55.0284C253.132 55.1067 252.953 55.2723 252.852 55.5253L251.35 54.9244C251.508 54.5294 251.755 54.2182 252.091 53.9909C252.432 53.7615 252.828 53.6347 253.28 53.6105C253.736 53.5876 254.194 53.6683 254.655 53.8527C255.455 54.1729 256.005 54.6161 256.305 55.1823C256.607 55.7451 256.623 56.3626 256.354 57.0348C256.215 57.3813 255.982 57.6578 255.654 57.8643C255.327 58.0708 254.96 58.1835 254.555 58.2022C254.92 58.5251 255.145 58.8806 255.231 59.2687C255.321 59.6582 255.282 60.0609 255.116 60.4767C254.847 61.1489 254.385 61.5893 253.731 61.7979C253.08 62.0079 252.351 61.9514 251.544 61.6284C250.789 61.3262 250.25 60.8796 249.928 60.2884C249.609 59.6986 249.58 59.0763 249.842 58.4214L251.344 59.0223C251.231 59.3064 251.244 59.5809 251.383 59.8456C251.526 60.1117 251.753 60.3072 252.065 60.4319C252.422 60.5747 252.738 60.5927 253.014 60.486C253.295 60.3772 253.497 60.1669 253.622 59.855C253.924 59.0996 253.66 58.5556 252.828 58.2229L252.033 57.9048L252.503 56.7301Z" fill="#FF114A"/>
    <path d="M261.12 61.7089C260.702 62.7554 260.165 63.4692 259.51 63.8503C258.855 64.2315 258.11 64.255 257.275 63.921C256.45 63.5911 255.928 63.0668 255.709 62.3481C255.49 61.6294 255.579 60.7604 255.975 59.7409L256.532 58.3479C256.955 57.2911 257.494 56.5762 258.149 56.2034C258.808 55.832 259.55 55.8112 260.375 56.1411C261.2 56.471 261.722 56.9953 261.941 57.714C262.161 58.4292 262.073 59.2965 261.678 60.3159L261.12 61.7089ZM260.229 59.5799C260.48 58.9527 260.576 58.4624 260.516 58.109C260.462 57.7534 260.252 57.5029 259.889 57.3573C259.535 57.216 259.219 57.2482 258.939 57.454C258.665 57.6577 258.407 58.0469 258.165 58.6214L257.429 60.4614C257.182 61.0782 257.082 61.5706 257.127 61.9386C257.178 62.3045 257.389 62.5616 257.759 62.7099C258.127 62.8568 258.449 62.8191 258.727 62.5966C259.005 62.3742 259.266 61.9681 259.51 61.3783L260.229 59.5799Z" fill="#FF114A"/>
    <path d="M296.446 87.0239L292.243 83.3429L292.974 82.5091L296.809 82.1323C297.342 82.0732 297.77 81.9893 298.093 81.8806C298.42 81.7744 298.67 81.6216 298.845 81.4223C299.083 81.1499 299.201 80.8763 299.199 80.6014C299.199 80.3237 299.071 80.073 298.816 79.8492C298.541 79.6082 298.239 79.5131 297.912 79.5639C297.59 79.6143 297.294 79.7939 297.024 80.1027L295.802 79.0331C296.129 78.6597 296.516 78.396 296.964 78.2421C297.414 78.0907 297.878 78.0705 298.356 78.1817C298.837 78.2901 299.284 78.525 299.696 78.8864C300.328 79.4397 300.685 80.0204 300.768 80.6285C300.853 81.2391 300.653 81.8209 300.169 82.374C299.904 82.6772 299.554 82.9172 299.122 83.0939C298.689 83.2707 298.099 83.401 297.351 83.4849L294.669 83.7338L297.306 86.0427L296.446 87.0239Z" fill="#FF114A"/>
    <path d="M301.16 84.7823L301.809 85.3503C302.117 85.6208 302.414 85.744 302.698 85.7199C302.982 85.6958 303.236 85.556 303.46 85.3005C303.676 85.0535 303.77 84.796 303.742 84.5281C303.716 84.2627 303.574 84.0168 303.316 83.7906C303.083 83.5865 302.831 83.4802 302.561 83.4716C302.293 83.4603 302.069 83.5571 301.89 83.762L300.673 82.6961C300.953 82.376 301.29 82.1647 301.682 82.062C302.08 81.9589 302.496 81.9711 302.93 82.0984C303.367 82.2281 303.772 82.4565 304.146 82.7836C304.794 83.3516 305.166 83.9525 305.261 84.5862C305.358 85.2171 305.168 85.805 304.691 86.3496C304.445 86.6304 304.134 86.8137 303.756 86.8995C303.378 86.9853 302.995 86.9697 302.606 86.8526C302.843 87.2786 302.938 87.6889 302.89 88.0835C302.845 88.4805 302.675 88.8475 302.38 89.1844C301.903 89.7291 301.321 89.9911 300.635 89.9704C299.951 89.9521 299.282 89.6566 298.628 89.0836C298.016 88.5476 297.656 87.9472 297.549 87.2826C297.444 86.6204 297.624 86.024 298.089 85.4934L299.306 86.5593C299.104 86.7895 299.025 87.0526 299.069 87.3486C299.115 87.6471 299.264 87.9069 299.517 88.1282C299.806 88.3815 300.098 88.5036 300.394 88.4946C300.695 88.4853 300.956 88.3543 301.177 88.1016C301.713 87.4896 301.645 86.8885 300.971 86.2984L300.326 85.734L301.16 84.7823Z" fill="#FF114A"/>
    <path d="M330.942 120.327L334.558 118.25L337.265 121.93L336.178 122.729L334.257 120.118L332.726 120.995C333.12 121.183 333.444 121.451 333.701 121.8C334.161 122.425 334.328 123.057 334.201 123.697C334.074 124.338 333.662 124.914 332.965 125.427C332.541 125.739 332.094 125.929 331.625 125.996C331.161 126.064 330.713 126 330.281 125.804C329.852 125.605 329.471 125.279 329.137 124.825C328.845 124.428 328.653 124.001 328.563 123.544C328.475 123.085 328.504 122.649 328.65 122.236C328.797 121.826 329.053 121.478 329.417 121.192L330.366 122.481C330.112 122.71 329.969 122.961 329.935 123.236C329.906 123.512 329.989 123.783 330.184 124.047C330.401 124.342 330.673 124.491 331 124.496C331.331 124.498 331.69 124.356 332.078 124.071C332.451 123.797 332.669 123.495 332.732 123.166C332.796 122.836 332.704 122.503 332.456 122.167C332.228 121.857 331.962 121.666 331.658 121.593L331.448 121.553L330.942 120.327Z" fill="#FF114A"/>
    <path d="M345.778 167.8L345.48 166.209L351.611 165.063L350.667 163.275L351.96 163.033L353.769 166.129L353.801 166.3L345.778 167.8Z" fill="#FF114A"/>
    <path d="M355.061 172.645L353.751 172.89L353.723 172.736C353.577 172.019 353.282 171.475 352.836 171.102C352.391 170.734 351.838 170.566 351.176 170.598C351.688 170.943 352.005 171.44 352.127 172.089C352.257 172.786 352.111 173.387 351.689 173.891C351.267 174.395 350.648 174.723 349.834 174.875C349.313 174.973 348.82 174.947 348.356 174.799C347.892 174.654 347.504 174.396 347.192 174.025C346.881 173.658 346.676 173.214 346.579 172.693C346.421 171.85 346.587 171.112 347.076 170.482C347.567 169.855 348.302 169.45 349.281 169.267L349.853 169.16C350.723 168.997 351.52 169.017 352.245 169.219C352.975 169.425 353.578 169.8 354.056 170.345C354.538 170.892 354.856 171.571 355.012 172.381L355.061 172.645ZM350.759 171.844C350.711 171.587 350.6 171.367 350.425 171.183C350.254 170.998 350.049 170.877 349.811 170.819L349.326 170.91C348.794 171.009 348.398 171.192 348.136 171.457C347.878 171.722 347.784 172.043 347.855 172.421C347.918 172.762 348.104 173.012 348.411 173.171C348.722 173.333 349.092 173.374 349.521 173.294C349.958 173.212 350.29 173.04 350.518 172.777C350.746 172.514 350.827 172.203 350.759 171.844Z" fill="#FF114A"/>
    <path d="M348.069 219.841L348.305 218.241L354.474 219.149L354.163 217.151L355.465 217.342L356.169 220.858L356.144 221.03L348.069 219.841Z" fill="#FF114A"/>
    <path d="M334.597 264.148L335.352 262.717L340.868 265.626L341.239 263.639L342.403 264.252L341.898 267.802L341.817 267.956L334.597 264.148Z" fill="#FF114A"/>
    <path d="M334.108 271.653L333.677 272.47L332.523 271.862L332.954 271.045L331.394 270.222L332.149 268.791L333.709 269.614L335.268 266.658L336.203 267.068L339.367 272.578L338.604 274.024L334.108 271.653ZM335.703 268.628L334.863 270.222L337.408 271.564L337.294 271.384L335.703 268.628Z" fill="#FF114A"/>
    <path d="M305.452 308.424C305.491 307.834 305.722 307.351 306.142 306.977C306.68 306.498 307.275 306.298 307.926 306.378C308.579 306.461 309.185 306.816 309.743 307.443C310.098 307.842 310.337 308.284 310.46 308.769C310.582 309.26 310.569 309.736 310.42 310.198C310.275 310.663 310.007 311.069 309.616 311.417C309.215 311.774 308.769 311.991 308.278 312.069C307.787 312.146 307.288 312.073 306.78 311.851C306.272 311.629 305.801 311.276 305.366 310.794L304.968 310.346C304.064 309.332 303.607 308.31 303.595 307.281C303.583 306.252 304.023 305.306 304.913 304.443L305.206 304.175L306.104 305.182L305.84 305.425C304.831 306.408 304.702 307.407 305.452 308.424ZM306.668 308.165C306.473 308.339 306.351 308.538 306.301 308.762C306.248 308.989 306.249 309.206 306.303 309.413L306.746 309.91C307.11 310.32 307.471 310.568 307.829 310.655C308.186 310.742 308.495 310.668 308.757 310.435C309 310.219 309.1 309.93 309.057 309.568C309.017 309.209 308.848 308.862 308.551 308.528C308.255 308.196 307.937 307.99 307.595 307.909C307.253 307.834 306.944 307.919 306.668 308.165Z" fill="#FF114A"/>
    <path d="M265.638 332.182L267.111 331.511L269.695 337.187L271.205 335.841L271.75 337.039L269.179 339.538L269.021 339.61L265.638 332.182Z" fill="#FF114A"/>
    <path d="M261.391 340.692C261.227 340.332 261.171 339.972 261.224 339.612C261.278 339.251 261.424 338.916 261.664 338.605C261.225 338.596 260.831 338.487 260.481 338.277C260.133 338.07 259.865 337.762 259.678 337.351C259.378 336.692 259.365 336.068 259.638 335.48C259.913 334.896 260.436 334.428 261.207 334.077C261.978 333.726 262.677 333.639 263.304 333.817C263.93 333.995 264.393 334.412 264.691 335.068C264.878 335.479 264.936 335.885 264.865 336.287C264.794 336.688 264.618 337.055 264.339 337.387C264.731 337.41 265.08 337.519 265.387 337.716C265.69 337.914 265.924 338.193 266.088 338.553C266.376 339.185 266.394 339.783 266.143 340.349C265.893 340.918 265.407 341.367 264.684 341.696C263.964 342.024 263.308 342.097 262.717 341.915C262.123 341.739 261.681 341.331 261.391 340.692ZM261.204 336.785C261.351 337.108 261.562 337.323 261.837 337.432C262.112 337.54 262.408 337.523 262.723 337.379C263.036 337.236 263.241 337.026 263.34 336.747C263.44 336.472 263.416 336.171 263.268 335.845C263.124 335.529 262.916 335.316 262.644 335.206C262.373 335.096 262.074 335.115 261.748 335.264C261.429 335.409 261.222 335.616 261.127 335.885C261.028 336.156 261.054 336.455 261.204 336.785ZM262.83 339.95C262.962 340.239 263.144 340.435 263.375 340.539C263.609 340.646 263.864 340.636 264.143 340.509C264.418 340.384 264.593 340.201 264.669 339.962C264.744 339.723 264.714 339.453 264.578 339.155C264.443 338.859 264.259 338.656 264.024 338.546C263.789 338.435 263.532 338.444 263.254 338.57C262.975 338.697 262.802 338.885 262.735 339.133C262.664 339.382 262.696 339.655 262.83 339.95Z" fill="#FF114A"/>
    <path d="M213.804 353.029L216.316 345.539L218.017 345.391L215.464 352.48L219.502 352.129L219.616 353.434L213.882 353.933L213.804 353.029Z" fill="#FF114A"/>
    <path d="M168.682 341.391L170.248 341.8L168.67 347.833L170.69 347.742L170.357 349.015L166.785 349.331L166.617 349.287L168.682 341.391Z" fill="#FF114A"/>
    <path d="M161.265 339.451L166.67 340.864L166.389 341.937L163.127 343.988C162.677 344.28 162.332 344.546 162.091 344.788C161.847 345.029 161.691 345.277 161.624 345.534C161.532 345.884 161.549 346.181 161.674 346.426C161.798 346.675 162.024 346.842 162.353 346.928C162.707 347.02 163.019 346.971 163.289 346.779C163.554 346.59 163.739 346.297 163.843 345.9L165.413 346.311C165.288 346.791 165.059 347.2 164.728 347.537C164.393 347.874 163.987 348.1 163.509 348.214C163.031 348.332 162.527 348.322 161.996 348.183C161.183 347.97 160.604 347.611 160.259 347.103C159.909 346.595 159.828 345.986 160.014 345.275C160.116 344.885 160.321 344.514 160.628 344.162C160.936 343.811 161.406 343.43 162.038 343.021L164.325 341.599L160.935 340.713L161.265 339.451Z" fill="#FF114A"/>
    <path d="M120.113 325.005L119.432 324.476C119.107 324.225 118.804 324.12 118.522 324.161C118.24 324.202 117.995 324.356 117.786 324.625C117.585 324.884 117.507 325.147 117.551 325.413C117.592 325.676 117.749 325.913 118.02 326.123C118.265 326.313 118.522 326.404 118.793 326.397C119.061 326.392 119.278 326.282 119.445 326.067L120.724 327.058C120.463 327.394 120.14 327.625 119.754 327.751C119.363 327.878 118.947 327.891 118.506 327.79C118.062 327.686 117.644 327.482 117.252 327.178C116.571 326.65 116.164 326.073 116.031 325.446C115.896 324.822 116.051 324.224 116.494 323.651C116.723 323.356 117.023 323.155 117.395 323.046C117.767 322.938 118.151 322.931 118.545 323.024C118.283 322.613 118.164 322.21 118.189 321.813C118.21 321.414 118.358 321.037 118.632 320.683C119.076 320.111 119.641 319.815 120.327 319.794C121.01 319.772 121.696 320.027 122.383 320.56C123.026 321.058 123.421 321.636 123.568 322.293C123.712 322.948 123.568 323.554 123.136 324.111L121.857 323.12C122.045 322.878 122.108 322.611 122.047 322.318C121.983 322.023 121.818 321.772 121.553 321.566C121.249 321.331 120.95 321.226 120.655 321.253C120.356 321.28 120.103 321.427 119.897 321.692C119.399 322.335 119.503 322.931 120.211 323.48L120.888 324.005L120.113 325.005Z" fill="#FF114A"/>
    <path d="M71.6654 271.492L71.2525 270.735C71.0559 270.375 70.8201 270.157 70.5452 270.081C70.2703 270.006 69.9838 270.05 69.6856 270.212C69.3973 270.37 69.2203 270.579 69.1545 270.84C69.0869 271.098 69.1353 271.378 69.2997 271.679C69.4481 271.951 69.6476 272.138 69.8984 272.239C70.146 272.342 70.3893 272.328 70.6285 272.198L71.4033 273.618C71.0298 273.822 70.6411 273.904 70.2372 273.865C69.8283 273.825 69.4419 273.67 69.0782 273.401C68.7128 273.128 68.4112 272.774 68.1734 272.338C67.7606 271.581 67.6189 270.889 67.7484 270.262C67.8746 269.636 68.2556 269.15 68.8911 268.803C69.2188 268.624 69.5747 268.56 69.9589 268.609C70.3432 268.659 70.6975 268.806 71.0219 269.05C70.9462 268.568 70.9989 268.15 71.1799 267.797C71.3592 267.439 71.6454 267.154 72.0386 266.939C72.6742 266.592 73.3105 266.547 73.9476 266.803C74.583 267.056 75.1089 267.564 75.5253 268.327C75.915 269.042 76.0456 269.729 75.9173 270.39C75.7872 271.048 75.4125 271.546 74.7933 271.883L74.0185 270.463C74.2872 270.317 74.4522 270.097 74.5135 269.804C74.573 269.508 74.5224 269.213 74.3615 268.918C74.1774 268.58 73.9451 268.365 73.6645 268.271C73.3788 268.176 73.0886 268.209 72.7937 268.37C72.0795 268.76 71.9369 269.348 72.3658 270.134L72.776 270.886L71.6654 271.492Z" fill="#FF114A"/>
    <path d="M71.1063 260.461L73.782 265.366L72.8089 265.896L69.0791 264.928C68.5585 264.799 68.1276 264.73 67.7866 264.721C67.4438 264.708 67.156 264.765 66.9234 264.892C66.6056 265.065 66.4004 265.282 66.3078 265.54C66.2119 265.801 66.2453 266.08 66.408 266.379C66.5831 266.7 66.833 266.893 67.1577 266.958C67.4773 267.022 67.8173 266.955 68.1777 266.759L68.9552 268.184C68.5194 268.422 68.0651 268.535 67.5921 268.526C67.1173 268.513 66.6747 268.371 66.2642 268.102C65.8505 267.835 65.5122 267.46 65.2495 266.979C64.8473 266.241 64.7124 265.573 64.8446 264.974C64.975 264.371 65.3629 263.894 66.0083 263.542C66.3622 263.349 66.7726 263.244 67.2396 263.227C67.7067 263.211 68.3058 263.292 69.037 263.471L71.6396 264.162L69.9612 261.086L71.1063 260.461Z" fill="#FF114A"/>
    <path d="M59.6011 220.713L59.7496 222.324L53.5397 222.897L54.3134 224.765L53.0034 224.885L51.4895 221.635L51.4735 221.462L59.6011 220.713Z" fill="#FF114A"/>
    <path d="M55.8185 215.172C56.2697 215.554 56.5212 216.026 56.5729 216.587C56.639 217.304 56.4467 217.901 55.9958 218.377C55.5413 218.854 54.8959 219.131 54.0598 219.208C53.5283 219.257 53.0309 219.187 52.5674 218.997C52.0999 218.804 51.7243 218.511 51.4406 218.117C51.1533 217.724 50.9856 217.267 50.9376 216.747C50.8883 216.211 50.9782 215.723 51.2074 215.283C51.4367 214.842 51.7915 214.483 52.272 214.206C52.7524 213.93 53.3158 213.76 53.9621 213.696L54.5586 213.641C55.9113 213.517 57.0052 213.755 57.8402 214.356C58.6752 214.958 59.1756 215.873 59.3413 217.102L59.3834 217.497L58.0399 217.621L58.0015 217.265C57.8092 215.87 57.0815 215.172 55.8185 215.172ZM55.3044 216.305C55.2805 216.045 55.193 215.828 55.0421 215.654C54.8908 215.477 54.716 215.349 54.5175 215.27L53.8542 215.331C53.3079 215.381 52.8938 215.524 52.612 215.76C52.3301 215.996 52.2053 216.289 52.2375 216.638C52.2673 216.961 52.4405 217.213 52.757 217.394C53.0697 217.575 53.4491 217.645 53.8951 217.604C54.3373 217.563 54.6923 217.429 54.9599 217.202C55.2235 216.972 55.3384 216.673 55.3044 216.305Z" fill="#FF114A"/>
    <path d="M61.6997 169.154L60.3334 174.572L59.2586 174.3L57.1785 171.056C56.8835 170.609 56.614 170.266 56.3701 170.027C56.1271 169.785 55.8772 169.631 55.6202 169.567C55.2692 169.478 54.9718 169.497 54.7281 169.624C54.4807 169.751 54.3155 169.978 54.2324 170.308C54.143 170.662 54.1953 170.974 54.3893 171.242C54.5807 171.506 54.8754 171.688 55.2734 171.788L54.8764 173.363C54.3951 173.241 53.9842 173.016 53.6436 172.688C53.304 172.356 53.0749 171.952 52.9564 171.475C52.8343 170.998 52.8403 170.493 52.9745 169.961C53.1799 169.147 53.5346 168.565 54.0386 168.215C54.5435 167.861 55.1524 167.774 55.8653 167.954C56.2561 168.053 56.6286 168.254 56.9828 168.559C57.337 168.864 57.7216 169.331 58.1367 169.959L59.5779 172.233L60.435 168.835L61.6997 169.154Z" fill="#FF114A"/>
    <path d="M62.7643 164.933L62.3687 166.502L56.3217 164.977L56.4302 166.996L55.1546 166.674L54.8077 163.105L54.8501 162.937L62.7643 164.933Z" fill="#FF114A"/>
    <path d="M79.7366 124.631L77.0179 129.512L76.0496 128.973L74.8775 125.302C74.7081 124.793 74.5363 124.392 74.3623 124.099C74.1901 123.802 73.9882 123.589 73.7567 123.46C73.4405 123.284 73.1482 123.226 72.8799 123.286C72.6083 123.344 72.3899 123.521 72.2246 123.818C72.0466 124.137 72.0168 124.452 72.135 124.761C72.2517 125.065 72.4894 125.317 72.848 125.517L72.0581 126.936C71.6244 126.694 71.2855 126.371 71.0413 125.965C70.7988 125.557 70.6819 125.107 70.6904 124.617C70.6957 124.124 70.8318 123.638 71.0987 123.159C71.5073 122.425 72.0003 121.954 72.5776 121.746C73.1568 121.535 73.7675 121.608 74.4098 121.966C74.7619 122.162 75.0697 122.453 75.3332 122.839C75.5966 123.225 75.8478 123.775 76.0866 124.489L76.8918 127.058L78.597 123.997L79.7366 124.631Z" fill="#FF114A"/>
    <path d="M76.5579 122.101L73.1677 119.674L75.3905 115.684L76.5692 116.34L74.9919 119.172L76.4246 120.201C76.4324 119.765 76.5416 119.358 76.7522 118.98C77.13 118.301 77.6363 117.887 78.2712 117.737C78.9061 117.586 79.6017 117.722 80.3581 118.143C80.8179 118.399 81.1758 118.727 81.432 119.126C81.6868 119.52 81.8144 119.954 81.815 120.428C81.8123 120.901 81.6739 121.383 81.3996 121.876C81.1599 122.306 80.851 122.657 80.473 122.93C80.0917 123.2 79.683 123.355 79.2469 123.394C78.8126 123.43 78.3897 123.341 77.9781 123.129L78.7572 121.73C79.0703 121.866 79.359 121.893 79.6233 121.809C79.8862 121.721 80.0976 121.533 80.2574 121.246C80.4354 120.926 80.4584 120.617 80.3264 120.317C80.1911 120.015 79.9132 119.747 79.4926 119.513C79.0883 119.288 78.7232 119.215 78.3972 119.294C78.0713 119.373 77.8066 119.595 77.6032 119.96C77.4161 120.296 77.3525 120.617 77.4124 120.924L77.4632 121.131L76.5579 122.101Z" fill="#FF114A"/>
    <path d="M105.733 86.008L106.395 85.4562C106.711 85.1935 106.879 84.92 106.899 84.6356C106.92 84.3513 106.821 84.0787 106.604 83.8177C106.394 83.5654 106.154 83.4323 105.885 83.4183C105.619 83.402 105.354 83.5038 105.09 83.7235C104.852 83.9218 104.708 84.1537 104.657 84.4194C104.604 84.6822 104.665 84.9183 104.839 85.1276L103.596 86.163C103.324 85.8361 103.168 85.4708 103.127 85.067C103.088 84.658 103.165 84.2489 103.359 83.8399C103.555 83.4286 103.844 83.064 104.225 82.7464C104.888 82.1946 105.539 81.9214 106.18 81.9268C106.819 81.9294 107.369 82.2088 107.833 82.7651C108.072 83.0519 108.204 83.3885 108.23 83.7751C108.255 84.1617 108.18 84.5377 108.004 84.9032C108.462 84.7356 108.882 84.7063 109.264 84.8154C109.649 84.922 109.985 85.1474 110.271 85.4915C110.735 86.0478 110.903 86.6633 110.775 87.338C110.65 88.0103 110.253 88.6247 109.585 89.1813C108.96 89.702 108.311 89.9634 107.638 89.9657C106.967 89.9655 106.406 89.6945 105.955 89.1525L107.198 88.117C107.394 88.3522 107.641 88.4715 107.941 88.4749C108.243 88.4759 108.523 88.3689 108.781 88.154C109.076 87.9079 109.242 87.6382 109.28 87.3448C109.318 87.0462 109.229 86.7678 109.014 86.5097C108.493 85.8846 107.889 85.8587 107.201 86.4319L106.542 86.9801L105.733 86.008Z" fill="#FF114A"/>
    <path d="M113.867 81.4763L114.577 80.8851L115.412 81.8873L114.702 82.4785L115.831 83.8335L114.588 84.8689L113.459 83.514L110.891 85.6529L110.183 84.9166L109.358 78.6168L110.614 77.5706L113.867 81.4763ZM111.239 83.6654L112.624 82.5117L110.783 80.3008L110.819 80.5108L111.239 83.6654Z" fill="#FF114A"/>
    <path d="M154.385 62.3288L149.253 64.5366L148.815 63.5184L150.126 59.8949C150.302 59.3884 150.411 58.9659 150.452 58.6272C150.497 58.287 150.467 57.9953 150.362 57.7518C150.219 57.4193 150.023 57.1949 149.774 57.0786C149.523 56.9589 149.242 56.9661 148.93 57.1003C148.594 57.2448 148.379 57.4757 148.284 57.7929C148.19 58.1052 148.225 58.4499 148.387 58.827L146.896 59.4685C146.7 59.0126 146.628 58.5496 146.682 58.0795C146.739 57.608 146.921 57.1805 147.227 56.7968C147.532 56.4098 147.937 56.1078 148.44 55.891C149.212 55.5592 149.89 55.487 150.474 55.6744C151.062 55.8603 151.501 56.2909 151.792 56.9663C151.951 57.3366 152.017 57.755 151.99 58.2216C151.964 58.6881 151.827 59.2771 151.58 59.9885L150.65 62.5154L153.869 61.1306L154.385 62.3288Z" fill="#FF114A"/>
    <path d="M157.002 53.3172L156.97 61.217L155.401 61.8917L155.598 54.3599L151.875 55.9615L151.357 54.7582L156.644 52.4841L157.002 53.3172Z" fill="#FF114A"/>
    <path d="M198.879 49.5366H199.741C200.152 49.5366 200.456 49.434 200.654 49.2287C200.851 49.0234 200.95 48.751 200.95 48.4114C200.95 48.083 200.851 47.8273 200.654 47.6444C200.46 47.4616 200.191 47.3701 199.847 47.3701C199.538 47.3701 199.278 47.456 199.069 47.6276C198.86 47.7956 198.756 48.0158 198.756 48.2882H197.138C197.138 47.8628 197.252 47.4821 197.479 47.1462C197.711 46.8066 198.032 46.5416 198.442 46.3513C198.857 46.1609 199.312 46.0658 199.808 46.0658C200.67 46.0658 201.346 46.2729 201.835 46.6872C202.324 47.0977 202.568 47.665 202.568 48.389C202.568 48.7622 202.454 49.1055 202.227 49.419C201.999 49.7325 201.7 49.9733 201.331 50.1412C201.79 50.3054 202.132 50.5517 202.355 50.8802C202.583 51.2086 202.697 51.5967 202.697 52.0446C202.697 52.7686 202.432 53.3489 201.902 53.7856C201.376 54.2222 200.678 54.4406 199.808 54.4406C198.995 54.4406 198.329 54.226 197.81 53.7968C197.295 53.3676 197.037 52.8003 197.037 52.0949H198.655C198.655 52.401 198.769 52.651 198.997 52.8451C199.228 53.0392 199.512 53.1362 199.847 53.1362C200.232 53.1362 200.532 53.0354 200.749 52.8339C200.969 52.6286 201.079 52.3581 201.079 52.0222C201.079 51.2086 200.631 50.8018 199.736 50.8018H198.879V49.5366Z" fill="#FF114A"/>
    <path d="M207.632 46.0938V47.4261H207.475C206.744 47.4373 206.154 47.6276 205.706 47.9971C205.262 48.3666 204.996 48.8798 204.906 49.5366C205.339 49.0962 205.886 48.876 206.546 48.876C207.255 48.876 207.819 49.1298 208.237 49.6374C208.655 50.1449 208.864 50.813 208.864 51.6415C208.864 52.1715 208.748 52.651 208.517 53.0802C208.289 53.5094 207.964 53.8434 207.543 54.0823C207.125 54.3211 206.651 54.4406 206.121 54.4406C205.262 54.4406 204.568 54.142 204.038 53.5449C203.512 52.9477 203.249 52.1509 203.249 51.1545V50.5723C203.249 49.6878 203.415 48.9077 203.747 48.2322C204.083 47.553 204.563 47.0286 205.186 46.6592C205.813 46.286 206.539 46.0975 207.364 46.0938H207.632ZM206.054 50.1748C205.792 50.1748 205.555 50.2438 205.343 50.3819C205.13 50.5163 204.973 50.6954 204.872 50.9193V51.412C204.872 51.9531 204.979 52.3767 205.191 52.6827C205.404 52.985 205.703 53.1362 206.087 53.1362C206.434 53.1362 206.714 53 206.927 52.7275C207.143 52.4514 207.252 52.0949 207.252 51.6583C207.252 51.2142 207.143 50.8559 206.927 50.5835C206.71 50.311 206.419 50.1748 206.054 50.1748Z" fill="#FF114A"/>
    <path d="M82.1032 285.616C83.0243 284.966 83.8633 284.66 84.6202 284.697C85.377 284.735 86.0146 285.121 86.5329 285.856C87.0447 286.582 87.1967 287.306 86.9888 288.028C86.7809 288.75 86.2333 289.43 85.346 290.07L84.1199 290.934C83.1896 291.59 82.348 291.896 81.5951 291.851C80.84 291.804 80.2066 291.417 79.6947 290.691C79.1829 289.965 79.031 289.241 79.2389 288.519C79.4437 287.799 79.9898 287.12 80.877 286.48L82.1032 285.616ZM81.6903 287.886C81.1382 288.276 80.7909 288.635 80.6483 288.964C80.5005 289.292 80.5395 289.616 80.7654 289.936C80.9847 290.247 81.2676 290.392 81.6139 290.372C81.955 290.351 82.3835 290.165 82.8994 289.815L84.519 288.673C85.0619 288.29 85.4145 287.932 85.5766 287.599C85.7335 287.264 85.697 286.934 85.4668 286.607C85.2389 286.284 84.9478 286.14 84.5935 286.175C84.2393 286.21 83.7992 286.409 83.2734 286.77L81.6903 287.886Z" fill="#419E3F"/>
    <path d="M244.888 50.3237L242.232 60.1713L241.556 59.9785L244.211 50.1309L244.888 50.3237Z" fill="#323649"/>
    <path d="M269.477 59.2977L265.206 68.5277L264.579 68.2579L268.85 59.028L269.477 59.2977Z" fill="#323649"/>
    <path d="M292.209 72.3824L286.429 80.7598L285.854 80.3727L291.634 71.9953L292.209 72.3824Z" fill="#323649"/>
    <path d="M312.395 89.0972L305.292 96.3955L304.807 95.9356L311.91 88.6373L312.395 89.0972Z" fill="#323649"/>
    <path d="M329.473 108.933L321.236 114.926L320.84 114.393L329.078 108.401L329.473 108.933Z" fill="#323649"/>
    <path d="M343.003 131.394L333.891 135.944L333.549 135.294L342.661 130.744L343.003 131.394Z" fill="#323649"/>
    <path d="M352.526 155.777L342.763 158.702L342.582 158.069L352.346 155.144L352.526 155.777Z" fill="#323649"/>
    <path d="M357.817 181.485L347.698 182.693L347.603 182.028L357.721 180.819L357.817 181.485Z" fill="#323649"/>
    <path d="M358.674 207.677L348.489 207.158L348.519 206.464L358.705 206.984L358.674 207.677Z" fill="#323649"/>
    <path d="M355.134 233.62L345.201 231.447L345.354 230.766L355.287 232.939L355.134 233.62Z" fill="#323649"/>
    <path d="M347.309 258.629L337.876 254.786L338.145 254.158L347.578 258.001L347.309 258.629Z" fill="#323649"/>
    <path d="M335.317 281.936L326.659 276.535L327.006 275.956L335.663 281.358L335.317 281.936Z" fill="#323649"/>
    <path d="M319.595 302.893L311.98 296.123L312.444 295.597L320.059 302.367L319.595 302.893Z" fill="#323649"/>
    <path d="M300.531 320.921L294.184 312.971L294.721 312.535L301.067 320.485L300.531 320.921Z" fill="#323649"/>
    <path d="M278.753 335.473L273.817 326.563L274.426 326.216L279.362 335.126L278.753 335.473Z" fill="#323649"/>
    <path d="M254.836 346.157L251.446 336.546L252.084 336.324L255.473 345.936L254.836 346.157Z" fill="#323649"/>
    <path d="M229.429 352.63L227.723 342.578L228.388 342.482L230.094 352.535L229.429 352.63Z" fill="#323649"/>
    <path d="M203.327 354.728L203.357 344.528L204.054 344.518L204.024 354.718L203.327 354.728Z" fill="#323649"/>
    <path d="M177.236 352.361L178.967 342.336L179.652 342.448L177.92 352.473L177.236 352.361Z" fill="#323649"/>
    <path d="M151.912 345.729L155.321 336.123L155.953 336.352L152.544 345.958L151.912 345.729Z" fill="#323649"/>
    <path d="M128.095 334.827L133.066 325.956L133.645 326.303L128.674 335.174L128.095 334.827Z" fill="#323649"/>
    <path d="M106.435 320.091L112.826 312.146L113.356 312.569L106.965 320.515L106.435 320.091Z" fill="#323649"/>
    <path d="M87.5477 301.912L95.2077 295.163L95.6479 295.66L87.9879 302.409L87.5477 301.912Z" fill="#323649"/>
    <path d="M72.0344 280.804L80.6951 275.469L81.0459 276.038L72.381 281.413L72.0344 280.804Z" fill="#323649"/>
    <path d="M60.238 257.415L69.684 253.596L69.9454 254.238L60.4993 258.056L60.238 257.415Z" fill="#323649"/>
    <path d="M52.5904 232.324L62.5621 230.158L62.6977 230.828L52.7261 232.994L52.5904 232.324Z" fill="#323649"/>
    <path d="M49.2955 206.331L59.4561 205.905L59.4659 206.603L49.3054 207.028L49.2955 206.331Z" fill="#323649"/>
    <path d="M50.404 180.137L60.5144 181.386L60.4432 182.075L50.3328 180.826L50.404 180.137Z" fill="#323649"/>
    <path d="M55.8766 154.516L65.649 157.452L65.4604 158.088L55.688 155.152L55.8766 154.516Z" fill="#323649"/>
    <path d="M65.6379 130.199L74.7524 134.747L74.4422 135.37L65.332 130.782L65.6379 130.199Z" fill="#323649"/>
    <path d="M79.3333 107.846L87.5549 113.899L87.1721 114.433L78.9504 108.38L79.3333 107.846Z" fill="#323649"/>
    <path d="M96.6439 88.1611L103.71 95.4886L103.21 95.9697L96.1437 88.6421L96.6439 88.1611Z" fill="#323649"/>
    <path d="M116.985 71.6575L122.75 80.0801L122.177 80.4717L116.412 72.0491L116.985 71.6575Z" fill="#323649"/>
    <path d="M139.818 58.7719L144.065 68.0211L143.46 68.3274L139.173 59.074L139.818 58.7719Z" fill="#323649"/>
    <path d="M164.447 49.9236L167.074 59.7841L166.4 59.9604L163.773 50.0999L164.447 49.9236Z" fill="#323649"/>
    <path d="M190.265 45.4188L191.184 55.5537L190.523 55.6084L189.604 45.4735L190.265 45.4188Z" fill="#323649"/>
    <path d="M216.486 45.3412L215.682 55.5029L214.993 55.4318L215.797 45.27L216.486 45.3412Z" fill="#323649"/>
    <g opacity="0.4">
        <mask id="mask0" mask-type="alpha" maskUnits="userSpaceOnUse" x="73" y="69" width="262" height="262">
            <circle cx="204.001" cy="200" r="128.304" stroke="white" stroke-width="5"/>
        </mask>
        <g mask="url(#mask0)">
            <path fill-rule="evenodd" clip-rule="evenodd" d="M113.98 121.921C111.117 125.07 106.243 125.302 103.094 122.439L97.5448 117.394C94.3957 114.531 94.1636 109.658 97.0265 106.509C99.8893 103.36 104.763 103.128 107.912 105.99L113.461 111.035C116.61 113.898 116.842 118.772 113.98 121.921Z" fill="#4B5D86"/>
            <path fill-rule="evenodd" clip-rule="evenodd" d="M102.184 138.199C100.025 141.867 95.3014 143.09 91.6338 140.931L85.1708 137.126C81.5032 134.967 80.2802 130.244 82.4392 126.576C84.5981 122.909 89.3215 121.686 92.9892 123.845L99.4521 127.649C103.12 129.808 104.343 134.532 102.184 138.199Z" fill="#FF114A"/>
            <path fill-rule="evenodd" clip-rule="evenodd" d="M93.1056 155.895C91.6074 159.879 87.1636 161.893 83.1802 160.395L76.1607 157.755C72.1772 156.257 70.1625 151.813 71.6608 147.829C73.159 143.846 77.6028 141.831 81.5862 143.33L88.6057 145.97C92.5892 147.468 94.6039 151.912 93.1056 155.895Z" fill="#4B5D86"/>
            <path fill-rule="evenodd" clip-rule="evenodd" d="M87.1949 175.08C86.3538 179.252 82.2898 181.952 78.1179 181.111L70.7663 179.629C66.5943 178.787 63.8942 174.723 64.7354 170.552C65.5765 166.38 69.6405 163.679 73.8124 164.521L81.164 166.003C85.336 166.844 88.0361 170.908 87.1949 175.08Z" fill="#FF114A"/>
            <path fill-rule="evenodd" clip-rule="evenodd" d="M84.8035 195.167C84.6708 199.42 81.1148 202.761 76.861 202.628L69.3651 202.395C65.1113 202.262 61.7704 198.706 61.9032 194.452C62.0359 190.198 65.5919 186.857 69.8457 186.99L77.3416 187.224C81.5954 187.357 84.9362 190.913 84.8035 195.167Z" fill="#4B5D86"/>
            <path fill-rule="evenodd" clip-rule="evenodd" d="M85.4138 215.224C85.986 219.441 83.0311 223.324 78.8139 223.896L71.3824 224.904C67.1652 225.477 63.2826 222.522 62.7104 218.304C62.1382 214.087 65.0931 210.205 69.3103 209.632L76.7418 208.624C80.959 208.052 84.8416 211.007 85.4138 215.224Z" fill="#FF114A"/>
            <path fill-rule="evenodd" clip-rule="evenodd" d="M89.9537 235.318C91.2888 239.359 89.0952 243.718 85.0541 245.053L77.9331 247.405C73.892 248.74 69.5338 246.547 68.1987 242.506C66.8637 238.464 69.0573 234.106 73.0984 232.771L80.2194 230.419C84.2605 229.084 88.6187 231.277 89.9537 235.318Z" fill="#4B5D86"/>
            <path fill-rule="evenodd" clip-rule="evenodd" d="M97.3552 253.864C99.3063 257.646 97.8219 262.294 94.0397 264.245L87.3747 267.684C83.5924 269.635 78.9446 268.15 76.9934 264.368C75.0422 260.586 76.5266 255.938 80.3089 253.987L86.9739 250.549C90.7561 248.597 95.404 250.082 97.3552 253.864Z" fill="#FF114A"/>
            <path fill-rule="evenodd" clip-rule="evenodd" d="M107.583 270.44C110.09 273.879 109.335 278.7 105.897 281.207L99.837 285.626C96.3983 288.133 91.5779 287.378 89.0704 283.94C86.5629 280.501 87.3178 275.68 90.7565 273.173L96.8162 268.754C100.255 266.247 105.075 267.002 107.583 270.44Z" fill="#419E3F"/>
            <path fill-rule="evenodd" clip-rule="evenodd" d="M121.144 286.161C124.227 289.095 124.347 293.973 121.413 297.056L116.242 302.488C113.308 305.57 108.43 305.69 105.347 302.756C102.265 299.822 102.145 294.944 105.079 291.861L110.25 286.429C113.184 283.347 118.062 283.227 121.144 286.161Z" fill="#4B5D86"/>
            <path fill-rule="evenodd" clip-rule="evenodd" d="M136.82 298.803C140.334 301.204 141.236 305.999 138.834 309.513L134.603 315.705C132.202 319.218 127.406 320.12 123.893 317.719C120.379 315.318 119.477 310.522 121.879 307.009L126.11 300.817C128.512 297.303 133.307 296.402 136.82 298.803Z" fill="#FF114A"/>
            <path fill-rule="evenodd" clip-rule="evenodd" d="M154.438 308.49C158.351 310.162 160.169 314.69 158.497 318.604L155.552 325.5C153.88 329.414 149.352 331.232 145.438 329.56C141.524 327.888 139.707 323.36 141.378 319.447L144.324 312.55C145.996 308.636 150.524 306.818 154.438 308.49Z" fill="#4B5D86"/>
            <path fill-rule="evenodd" clip-rule="evenodd" d="M173.334 315.555C177.452 316.63 179.919 320.84 178.843 324.958L176.948 332.214C175.872 336.332 171.663 338.798 167.545 337.723C163.427 336.647 160.961 332.438 162.036 328.32L163.931 321.064C165.007 316.946 169.217 314.48 173.334 315.555Z" fill="#FF114A"/>
            <path fill-rule="evenodd" clip-rule="evenodd" d="M193.309 319.006C197.555 319.299 200.759 322.978 200.466 327.224L199.949 334.706C199.656 338.952 195.977 342.156 191.731 341.863C187.485 341.57 184.281 337.89 184.574 333.644L185.09 326.163C185.384 321.917 189.063 318.713 193.309 319.006Z" fill="#4B5D86"/>
            <path fill-rule="evenodd" clip-rule="evenodd" d="M213.869 319.376C218.111 319.036 221.826 322.2 222.166 326.442L222.765 333.918C223.105 338.16 219.942 341.875 215.699 342.215C211.457 342.555 207.742 339.391 207.402 335.149L206.803 327.673C206.463 323.431 209.626 319.716 213.869 319.376Z" fill="#FF114A"/>
            <path fill-rule="evenodd" clip-rule="evenodd" d="M233.632 316.144C237.749 315.066 241.96 317.531 243.038 321.648L244.937 328.903C246.014 333.02 243.55 337.231 239.433 338.309C235.316 339.387 231.105 336.923 230.027 332.805L228.128 325.55C227.051 321.433 229.515 317.222 233.632 316.144Z" fill="#4B5D86"/>
            <path fill-rule="evenodd" clip-rule="evenodd" d="M253.005 309.072C256.889 307.331 261.448 309.068 263.188 312.952L266.256 319.796C267.996 323.679 266.259 328.239 262.375 329.979C258.491 331.72 253.932 329.983 252.191 326.099L249.124 319.255C247.384 315.371 249.121 310.812 253.005 309.072Z" fill="#FF114A"/>
            <path fill-rule="evenodd" clip-rule="evenodd" d="M269.887 299.524C273.42 297.151 278.207 298.092 280.58 301.625L284.762 307.85C287.135 311.383 286.194 316.171 282.662 318.544C279.129 320.917 274.341 319.976 271.968 316.443L267.786 310.218C265.414 306.685 266.354 301.897 269.887 299.524Z" fill="#4B5D86"/>
            <path fill-rule="evenodd" clip-rule="evenodd" d="M285.884 286.424C288.958 283.48 293.836 283.586 296.78 286.659L301.967 292.076C304.911 295.149 304.805 300.027 301.732 302.971C298.658 305.915 293.78 305.809 290.836 302.736L285.649 297.319C282.705 294.246 282.811 289.368 285.884 286.424Z" fill="#FF114A"/>
            <path fill-rule="evenodd" clip-rule="evenodd" d="M299.564 271.677C302.116 268.272 306.946 267.581 310.352 270.134L316.352 274.633C319.757 277.186 320.448 282.016 317.895 285.421C315.342 288.826 310.512 289.517 307.107 286.964L301.107 282.465C297.702 279.912 297.011 275.082 299.564 271.677Z" fill="#4B5D86"/>
            <path fill-rule="evenodd" clip-rule="evenodd" d="M310.139 254.232C312.063 250.436 316.701 248.919 320.497 250.844L327.185 254.236C330.981 256.161 332.498 260.798 330.573 264.594C328.648 268.39 324.011 269.906 320.215 267.981L313.526 264.59C309.73 262.665 308.214 258.027 310.139 254.232Z" fill="#FF114A"/>
            <path fill-rule="evenodd" clip-rule="evenodd" d="M317.344 235.97C318.66 231.923 323.007 229.708 327.055 231.024L334.187 233.342C338.235 234.658 340.449 239.006 339.133 243.053C337.818 247.101 333.47 249.315 329.423 247.999L322.29 245.681C318.243 244.365 316.028 240.018 317.344 235.97Z" fill="#4B5D86"/>
            <path fill-rule="evenodd" clip-rule="evenodd" d="M322.248 215.795C322.843 211.581 326.742 208.647 330.956 209.242L338.382 210.29C342.596 210.885 345.53 214.784 344.935 218.998C344.34 223.212 340.441 226.146 336.227 225.551L328.801 224.502C324.587 223.907 321.653 220.009 322.248 215.795Z" fill="#FF114A"/>
            <path fill-rule="evenodd" clip-rule="evenodd" d="M323.165 196.172C323.117 191.916 326.528 188.428 330.784 188.38L338.283 188.295C342.539 188.247 346.028 191.658 346.076 195.913C346.124 200.169 342.713 203.658 338.457 203.706L330.958 203.791C326.702 203.839 323.213 200.428 323.165 196.172Z" fill="#4B5D86"/>
            <path fill-rule="evenodd" clip-rule="evenodd" d="M320.463 175.49C319.558 171.331 322.196 167.226 326.354 166.322L333.683 164.728C337.841 163.823 341.946 166.461 342.851 170.619C343.755 174.778 341.117 178.883 336.959 179.787L329.631 181.381C325.472 182.286 321.367 179.648 320.463 175.49Z" fill="#FF114A"/>
            <path fill-rule="evenodd" clip-rule="evenodd" d="M314.943 156.509C313.36 152.558 315.279 148.072 319.229 146.489L326.191 143.7C330.142 142.117 334.627 144.036 336.21 147.987C337.793 151.937 335.874 156.423 331.923 158.006L324.962 160.795C321.011 162.378 316.526 160.459 314.943 156.509Z" fill="#4B5D86"/>
            <path fill-rule="evenodd" clip-rule="evenodd" d="M306.462 138.465C304.22 134.847 305.336 130.097 308.954 127.855L315.329 123.906C318.947 121.664 323.697 122.78 325.938 126.397C328.18 130.015 327.064 134.765 323.446 137.007L317.071 140.957C313.453 143.198 308.703 142.082 306.462 138.465Z" fill="#FF114A"/>
            <path fill-rule="evenodd" clip-rule="evenodd" d="M294.089 121.772C291.364 118.503 291.805 113.644 295.074 110.919L300.835 106.117C304.104 103.392 308.963 103.834 311.688 107.103C314.413 110.372 313.972 115.231 310.703 117.956L304.942 122.758C301.673 125.483 296.813 125.042 294.089 121.772Z" fill="#4B5D86"/>
            <path fill-rule="evenodd" clip-rule="evenodd" d="M279.803 107.756C276.529 105.037 276.079 100.179 278.798 96.9049L283.59 91.1355C286.309 87.8614 291.167 87.4114 294.441 90.1304C297.715 92.8494 298.165 97.7077 295.446 100.982L290.655 106.751C287.936 110.025 283.077 110.475 279.803 107.756Z" fill="#FF114A"/>
            <path fill-rule="evenodd" clip-rule="evenodd" d="M262.73 96.2103C259.044 94.0821 257.782 89.3691 259.91 85.6835L263.66 79.1889C265.788 75.5034 270.501 74.2408 274.187 76.369C277.873 78.4972 279.135 83.2101 277.007 86.8957L273.257 93.3903C271.129 97.0759 266.416 98.3384 262.73 96.2103Z" fill="#4B5D86"/>
            <path fill-rule="evenodd" clip-rule="evenodd" d="M245.369 87.9616C241.384 86.4664 239.366 82.0242 240.861 78.0396L243.496 71.0181C244.991 67.0334 249.433 65.0153 253.418 66.5104C257.402 68.0056 259.42 72.4478 257.925 76.4324L255.291 83.4539C253.796 87.4386 249.353 89.4567 245.369 87.9616Z" fill="#FF114A"/>
            <path fill-rule="evenodd" clip-rule="evenodd" d="M224.99 82.5372C220.796 81.8144 217.982 77.8284 218.705 73.6344L219.978 66.2438C220.701 62.0497 224.687 59.2357 228.881 59.9586C233.075 60.6814 235.889 64.6673 235.166 68.8614L233.893 76.252C233.17 80.4461 229.184 83.26 224.99 82.5372Z" fill="#4B5D86"/>
            <path fill-rule="evenodd" clip-rule="evenodd" d="M203.171 80.6697C198.915 80.7198 195.425 77.3105 195.375 73.0549L195.287 65.5558C195.237 61.3002 198.646 57.8098 202.902 57.7598C207.157 57.7097 210.648 61.119 210.698 65.3746L210.786 72.8737C210.836 77.1293 207.427 80.6197 203.171 80.6697Z" fill="#FF114A"/>
            <path fill-rule="evenodd" clip-rule="evenodd" d="M183.081 82.25C178.895 83.0208 174.877 80.2527 174.106 76.0672L172.748 68.6916C171.977 64.5061 174.745 60.4882 178.931 59.7174C183.116 58.9466 187.134 61.7148 187.905 65.9003L189.263 73.2758C190.034 77.4613 187.266 81.4792 183.081 82.25Z" fill="#4B5D86"/>
            <path fill-rule="evenodd" clip-rule="evenodd" d="M163.152 87.1878C159.149 88.6333 154.732 86.5601 153.287 82.5572L150.739 75.5034C149.294 71.5005 151.367 67.0837 155.37 65.6383C159.373 64.1928 163.79 66.266 165.235 70.2689L167.782 77.3227C169.228 81.3256 167.155 85.7423 163.152 87.1878Z" fill="#FF114A"/>
            <path fill-rule="evenodd" clip-rule="evenodd" d="M144.916 95.9981C141.223 98.1125 136.514 96.8324 134.4 93.1389L130.674 86.6304C128.56 82.9369 129.84 78.2286 133.533 76.1142C137.227 73.9998 141.935 75.28 144.049 78.9735L147.775 85.482C149.89 89.1755 148.609 93.8837 144.916 95.9981Z" fill="#4B5D86"/>
            <path fill-rule="evenodd" clip-rule="evenodd" d="M128.68 107.359C125.44 110.118 120.576 109.727 117.817 106.487L112.956 100.776C110.197 97.5357 110.587 92.6722 113.828 89.9133C117.068 87.1544 121.932 87.5449 124.691 90.7854L129.552 96.4958C132.311 99.7364 131.921 104.6 128.68 107.359Z" fill="#FF114A"/>
        </g>
    </g>
    <mask id="mask1" mask-type="alpha" maskUnits="userSpaceOnUse" x="69" y="65" width="270" height="270">
        <circle cx="204" cy="200.001" r="132.491" stroke="white" stroke-width="5"/>
    </mask>
    <g mask="url(#mask1)">
        <path fill-rule="evenodd" clip-rule="evenodd" d="M114.165 122.082C111.308 125.224 106.445 125.456 103.302 122.599L97.7642 117.565C94.6216 114.708 94.39 109.844 97.2469 106.702C100.104 103.559 104.967 103.328 108.11 106.184L113.648 111.219C116.79 114.076 117.022 118.939 114.165 122.082Z" fill="#4B5D86"/>
        <path fill-rule="evenodd" clip-rule="evenodd" d="M102.394 138.326C100.24 141.986 95.5263 143.207 91.8663 141.052L85.4167 137.256C81.7566 135.101 80.5361 130.387 82.6906 126.727C84.8451 123.067 89.5588 121.847 93.2188 124.001L99.6684 127.798C103.328 129.952 104.549 134.666 102.394 138.326Z" fill="#FF114A"/>
        <path fill-rule="evenodd" clip-rule="evenodd" d="M93.3349 155.986C91.8397 159.961 87.4051 161.971 83.4299 160.476L76.4249 157.842C72.4497 156.346 70.4392 151.912 71.9343 147.937C73.4294 143.961 77.864 141.951 81.8392 143.446L88.8442 146.081C92.8195 147.576 94.83 152.01 93.3349 155.986Z" fill="#4B5D86"/>
        <path fill-rule="evenodd" clip-rule="evenodd" d="M87.436 175.131C86.5966 179.295 82.5411 181.989 78.3778 181.15L71.0414 179.671C66.878 178.831 64.1835 174.776 65.0229 170.612C65.8623 166.449 69.9178 163.755 74.0812 164.594L81.4176 166.073C85.5809 166.913 88.2755 170.968 87.436 175.131Z" fill="#FF114A"/>
        <path fill-rule="evenodd" clip-rule="evenodd" d="M85.0498 195.176C84.9174 199.421 81.3688 202.755 77.1237 202.622L69.6433 202.389C65.3983 202.256 62.0644 198.708 62.1968 194.463C62.3292 190.218 65.8779 186.884 70.1229 187.016L77.6033 187.25C81.8484 187.382 85.1823 190.931 85.0498 195.176Z" fill="#4B5D86"/>
        <path fill-rule="evenodd" clip-rule="evenodd" d="M85.6592 215.193C86.2302 219.402 83.2814 223.276 79.0728 223.847L71.6567 224.854C67.4482 225.425 63.5736 222.476 63.0026 218.267C62.4316 214.059 65.3804 210.184 69.5889 209.613L77.005 208.607C81.2135 208.036 85.0881 210.985 85.6592 215.193Z" fill="#FF114A"/>
        <path fill-rule="evenodd" clip-rule="evenodd" d="M90.1891 235.246C91.5214 239.279 89.3323 243.628 85.2996 244.96L78.1933 247.308C74.1606 248.64 69.8114 246.451 68.4791 242.419C67.1468 238.386 69.3359 234.037 73.3686 232.704L80.4749 230.357C84.5076 229.024 88.8568 231.213 90.1891 235.246Z" fill="#4B5D86"/>
        <path fill-rule="evenodd" clip-rule="evenodd" d="M97.5753 253.752C99.5225 257.527 98.0411 262.165 94.2667 264.112L87.6155 267.543C83.841 269.49 79.2027 268.009 77.2556 264.235C75.3085 260.46 76.7898 255.822 80.5643 253.875L87.2155 250.444C90.9899 248.496 95.6282 249.978 97.5753 253.752Z" fill="#FF114A"/>
        <path fill-rule="evenodd" clip-rule="evenodd" d="M107.782 270.295C110.285 273.727 109.531 278.537 106.1 281.039L100.053 285.449C96.621 287.951 91.8105 287.198 89.3082 283.766C86.8059 280.335 87.5592 275.524 90.9909 273.022L97.038 268.612C100.47 266.11 105.28 266.863 107.782 270.295Z" fill="#419E3F"/>
        <path fill-rule="evenodd" clip-rule="evenodd" d="M121.315 285.984C124.391 288.912 124.511 293.78 121.583 296.856L116.423 302.277C113.495 305.353 108.627 305.473 105.551 302.545C102.475 299.616 102.355 294.749 105.283 291.672L110.443 286.252C113.371 283.176 118.239 283.056 121.315 285.984Z" fill="#4B5D86"/>
        <path fill-rule="evenodd" clip-rule="evenodd" d="M136.96 298.598C140.466 300.994 141.366 305.78 138.97 309.286L134.747 315.465C132.35 318.971 127.565 319.871 124.059 317.475C120.552 315.079 119.652 310.293 122.049 306.787L126.272 300.608C128.668 297.102 133.453 296.202 136.96 298.598Z" fill="#FF114A"/>
        <path fill-rule="evenodd" clip-rule="evenodd" d="M154.54 308.266C158.446 309.935 160.26 314.453 158.591 318.359L155.652 325.241C153.983 329.147 149.465 330.961 145.559 329.293C141.653 327.625 139.839 323.106 141.508 319.2L144.447 312.318C146.116 308.412 150.634 306.598 154.54 308.266Z" fill="#4B5D86"/>
        <path fill-rule="evenodd" clip-rule="evenodd" d="M173.398 315.316C177.507 316.389 179.968 320.591 178.895 324.7L177.004 331.941C175.93 336.05 171.729 338.512 167.62 337.438C163.511 336.365 161.05 332.164 162.123 328.055L164.014 320.813C165.087 316.704 169.288 314.243 173.398 315.316Z" fill="#FF114A"/>
        <path fill-rule="evenodd" clip-rule="evenodd" d="M193.331 318.759C197.568 319.052 200.766 322.723 200.473 326.96L199.958 334.427C199.665 338.664 195.993 341.861 191.756 341.569C187.519 341.276 184.322 337.605 184.614 333.368L185.13 325.901C185.422 321.664 189.094 318.467 193.331 318.759Z" fill="#4B5D86"/>
        <path fill-rule="evenodd" clip-rule="evenodd" d="M213.848 319.13C218.082 318.79 221.789 321.947 222.128 326.181L222.726 333.641C223.065 337.874 219.909 341.581 215.675 341.921C211.441 342.26 207.734 339.103 207.395 334.87L206.797 327.41C206.458 323.176 209.615 319.469 213.848 319.13Z" fill="#FF114A"/>
        <path fill-rule="evenodd" clip-rule="evenodd" d="M233.57 315.903C237.679 314.828 241.881 317.287 242.957 321.396L244.852 328.636C245.927 332.744 243.468 336.947 239.36 338.022C235.251 339.098 231.048 336.639 229.973 332.53L228.078 325.29C227.002 321.181 229.461 316.979 233.57 315.903Z" fill="#4B5D86"/>
        <path fill-rule="evenodd" clip-rule="evenodd" d="M252.903 308.846C256.779 307.109 261.328 308.843 263.065 312.719L266.126 319.548C267.863 323.424 266.129 327.974 262.254 329.711C258.378 331.448 253.828 329.714 252.091 325.838L249.03 319.009C247.293 315.133 249.027 310.583 252.903 308.846Z" fill="#FF114A"/>
        <path fill-rule="evenodd" clip-rule="evenodd" d="M269.751 299.318C273.277 296.95 278.054 297.889 280.422 301.414L284.595 307.627C286.963 311.153 286.025 315.931 282.499 318.299C278.974 320.667 274.196 319.728 271.828 316.203L267.655 309.99C265.287 306.464 266.225 301.686 269.751 299.318Z" fill="#4B5D86"/>
        <path fill-rule="evenodd" clip-rule="evenodd" d="M285.715 286.246C288.783 283.308 293.651 283.413 296.588 286.481L301.765 291.886C304.702 294.953 304.597 299.821 301.53 302.759C298.463 305.696 293.595 305.591 290.657 302.524L285.48 297.119C282.543 294.051 282.648 289.183 285.715 286.246Z" fill="#FF114A"/>
        <path fill-rule="evenodd" clip-rule="evenodd" d="M299.366 271.529C301.914 268.131 306.734 267.441 310.132 269.989L316.12 274.478C319.518 277.026 320.208 281.846 317.66 285.244C315.112 288.642 310.292 289.332 306.894 286.784L300.906 282.295C297.508 279.747 296.819 274.927 299.366 271.529Z" fill="#4B5D86"/>
        <path fill-rule="evenodd" clip-rule="evenodd" d="M309.919 254.12C311.84 250.332 316.468 248.819 320.256 250.74L326.931 254.125C330.719 256.045 332.232 260.673 330.311 264.461C328.391 268.249 323.763 269.763 319.975 267.842L313.3 264.457C309.512 262.536 307.999 257.908 309.919 254.12Z" fill="#FF114A"/>
        <path fill-rule="evenodd" clip-rule="evenodd" d="M317.11 235.896C318.423 231.857 322.762 229.647 326.801 230.96L333.918 233.274C337.957 234.587 340.167 238.925 338.854 242.964C337.541 247.003 333.202 249.213 329.163 247.9L322.046 245.587C318.007 244.274 315.797 239.935 317.11 235.896Z" fill="#4B5D86"/>
        <path fill-rule="evenodd" clip-rule="evenodd" d="M322.003 215.762C322.597 211.557 326.488 208.629 330.693 209.223L338.104 210.269C342.309 210.863 345.237 214.753 344.643 218.959C344.049 223.164 340.159 226.092 335.953 225.498L328.543 224.452C324.337 223.858 321.41 219.968 322.003 215.762Z" fill="#FF114A"/>
        <path fill-rule="evenodd" clip-rule="evenodd" d="M322.919 196.18C322.871 191.933 326.275 188.451 330.522 188.404L338.006 188.319C342.252 188.271 345.734 191.675 345.782 195.922C345.83 200.169 342.426 203.65 338.179 203.698L330.696 203.783C326.449 203.831 322.967 200.427 322.919 196.18Z" fill="#4B5D86"/>
        <path fill-rule="evenodd" clip-rule="evenodd" d="M320.222 175.541C319.32 171.391 321.952 167.295 326.102 166.392L333.415 164.801C337.565 163.898 341.661 166.531 342.564 170.681C343.467 174.831 340.834 178.927 336.684 179.83L329.371 181.421C325.221 182.323 321.125 179.691 320.222 175.541Z" fill="#FF114A"/>
        <path fill-rule="evenodd" clip-rule="evenodd" d="M314.713 156.598C313.133 152.656 315.049 148.179 318.991 146.599L325.938 143.816C329.881 142.236 334.357 144.151 335.937 148.094C337.516 152.036 335.601 156.513 331.659 158.092L324.712 160.876C320.769 162.456 316.293 160.54 314.713 156.598Z" fill="#4B5D86"/>
        <path fill-rule="evenodd" clip-rule="evenodd" d="M306.25 138.591C304.013 134.981 305.127 130.241 308.737 128.004L315.099 124.062C318.709 121.825 323.449 122.938 325.686 126.549C327.923 130.159 326.81 134.899 323.199 137.136L316.837 141.078C313.227 143.315 308.487 142.201 306.25 138.591Z" fill="#FF114A"/>
        <path fill-rule="evenodd" clip-rule="evenodd" d="M293.902 121.934C291.182 118.672 291.623 113.822 294.885 111.103L300.634 106.311C303.896 103.592 308.745 104.032 311.465 107.295C314.184 110.557 313.744 115.406 310.481 118.126L304.732 122.917C301.47 125.637 296.621 125.196 293.902 121.934Z" fill="#4B5D86"/>
        <path fill-rule="evenodd" clip-rule="evenodd" d="M279.647 107.947C276.379 105.234 275.93 100.385 278.644 97.118L283.425 91.3605C286.138 88.0931 290.987 87.6441 294.254 90.3575C297.521 93.0708 297.97 97.9192 295.257 101.186L290.476 106.944C287.762 110.211 282.914 110.66 279.647 107.947Z" fill="#FF114A"/>
        <path fill-rule="evenodd" clip-rule="evenodd" d="M262.608 96.4243C258.93 94.3005 257.67 89.5973 259.794 85.9193L263.537 79.4382C265.66 75.7602 270.364 74.5003 274.042 76.624C277.72 78.7478 278.98 83.451 276.856 87.129L273.113 93.6102C270.99 97.2881 266.286 98.5481 262.608 96.4243Z" fill="#4B5D86"/>
        <path fill-rule="evenodd" clip-rule="evenodd" d="M245.283 88.1936C241.306 86.7015 239.292 82.2685 240.784 78.2921L243.414 71.2851C244.906 67.3087 249.339 65.2947 253.315 66.7868C257.291 68.2788 259.305 72.7118 257.813 76.6882L255.184 83.6952C253.692 87.6716 249.259 89.6856 245.283 88.1936Z" fill="#FF114A"/>
        <path fill-rule="evenodd" clip-rule="evenodd" d="M224.947 82.7802C220.761 82.0589 217.953 78.0812 218.674 73.8958L219.946 66.5205C220.667 62.3351 224.645 59.5269 228.83 60.2483C233.015 60.9696 235.824 64.9473 235.102 69.1327L233.831 76.508C233.11 80.6934 229.132 83.5016 224.947 82.7802Z" fill="#4B5D86"/>
        <path fill-rule="evenodd" clip-rule="evenodd" d="M203.173 80.9166C198.926 80.9666 195.443 77.5643 195.393 73.3175L195.305 65.834C195.255 61.5872 198.658 58.104 202.904 58.054C207.151 58.0041 210.634 61.4063 210.684 65.6531L210.772 73.1367C210.822 77.3835 207.42 80.8667 203.173 80.9166Z" fill="#FF114A"/>
        <path fill-rule="evenodd" clip-rule="evenodd" d="M183.124 82.4937C178.947 83.2629 174.938 80.5004 174.168 76.3236L172.813 68.9633C172.044 64.7865 174.806 60.7769 178.983 60.0076C183.16 59.2384 187.169 62.0008 187.939 66.1777L189.294 73.538C190.063 77.7148 187.301 81.7244 183.124 82.4937Z" fill="#4B5D86"/>
        <path fill-rule="evenodd" clip-rule="evenodd" d="M163.237 87.4205C159.242 88.863 154.834 86.7941 153.392 82.7995L150.85 75.7603C149.408 71.7657 151.476 67.358 155.471 65.9155C159.466 64.473 163.873 66.542 165.316 70.5366L167.858 77.5758C169.3 81.5704 167.231 85.9781 163.237 87.4205Z" fill="#FF114A"/>
        <path fill-rule="evenodd" clip-rule="evenodd" d="M145.038 96.2136C141.352 98.3236 136.654 97.0461 134.544 93.3602L130.826 86.8652C128.716 83.1793 129.993 78.4808 133.679 76.3708C137.365 74.2607 142.063 75.5382 144.173 79.2241L147.891 85.7192C150.001 89.405 148.724 94.1035 145.038 96.2136Z" fill="#4B5D86"/>
        <path fill-rule="evenodd" clip-rule="evenodd" d="M128.836 107.55C125.602 110.303 120.748 109.913 117.995 106.679L113.143 100.981C110.39 97.7468 110.78 92.8933 114.014 90.1401C117.248 87.387 122.101 87.7766 124.854 91.0105L129.706 96.709C132.459 99.9429 132.069 104.796 128.836 107.55Z" fill="#FF114A"/>
    </g>
    <defs>
        <filter id="filter0_d" x="0" y="0" width="408" height="408" filterUnits="userSpaceOnUse" color-interpolation-filters="sRGB">
            <feFlood flood-opacity="0" result="BackgroundImageFix"/>
            <feColorMatrix in="SourceAlpha" type="matrix" values="0 0 0 0 0 0 0 0 0 0 0 0 0 0 0 0 0 0 127 0"/>
            <feOffset dy="4"/>
            <feGaussianBlur stdDeviation="17.5"/>
            <feColorMatrix type="matrix" values="0 0 0 0 0 0 0 0 0 0 0 0 0 0 0 0 0 0 0.25 0"/>
            <feBlend mode="normal" in2="BackgroundImageFix" result="effect1_dropShadow"/>
            <feBlend mode="normal" in="SourceGraphic" in2="effect1_dropShadow" result="shape"/>
        </filter>
        <linearGradient id="paint0_linear" x1="204" y1="31" x2="204" y2="369" gradientUnits="userSpaceOnUse">
            <stop stop-color="#262E43"/>
            <stop offset="1" stop-color="#17181F"/>
        </linearGradient>
        <linearGradient id="paint1_linear" x1="204" y1="31" x2="204" y2="369" gradientUnits="userSpaceOnUse">
            <stop stop-color="#323649"/>
            <stop offset="1" stop-color="#242632" stop-opacity="0"/>
        </linearGradient>
        <linearGradient id="paint2_linear" x1="204.345" y1="69.0696" x2="204.345" y2="330.747" gradientUnits="userSpaceOnUse">
            <stop stop-color="#1B1C21"/>
            <stop offset="1" stop-color="#242632" stop-opacity="0"/>
        </linearGradient>
    </defs>
</svg>
